<svg width="30" height="11" viewBox="0 0 30 11" fill="none" xmlns="http://www.w3.org/2000/svg">
<path d="M2.73 8.65499V2.085H3.99V8.65499H2.73ZM-4.85778e-06 5.97V4.78499H6.72V5.97H-4.85778e-06ZM8.09003 10.62V9.6L12.365 5.47499C12.745 5.11499 13.025 4.79999 13.205 4.52999C13.395 4.24999 13.52 3.99499 13.58 3.76499C13.65 3.52499 13.685 3.29499 13.685 3.07499C13.685 2.53499 13.495 2.10999 13.115 1.8C12.735 1.48999 12.18 1.33499 11.45 1.33499C10.89 1.33499 10.385 1.42999 9.93503 1.61999C9.48503 1.79999 9.09503 2.08499 8.76503 2.47499L7.74503 1.58999C8.14503 1.07999 8.68003 0.689995 9.35003 0.419995C10.03 0.139995 10.775 -4.94719e-06 11.585 -4.94719e-06C12.315 -4.94719e-06 12.95 0.119995 13.49 0.359995C14.03 0.589995 14.445 0.924995 14.735 1.36499C15.035 1.80499 15.185 2.32499 15.185 2.92499C15.185 3.26499 15.14 3.59999 15.05 3.92999C14.96 4.25999 14.79 4.60999 14.54 4.97999C14.29 5.34999 13.93 5.76499 13.46 6.22499L9.65003 9.9L9.29003 9.315H15.635V10.62H8.09003ZM18.6383 10.62V0.719995L19.2833 1.42499H16.2683V0.119994H20.1233V10.62H18.6383ZM25.6301 10.74C24.8901 10.74 24.1701 10.625 23.4701 10.395C22.7801 10.165 22.2151 9.855 21.7751 9.465L22.4651 8.28C22.8151 8.61 23.2701 8.88 23.8301 9.09C24.3901 9.3 24.9901 9.405 25.6301 9.405C26.4101 9.405 27.0151 9.24 27.4451 8.91C27.8851 8.57 28.1051 8.115 28.1051 7.54499C28.1051 6.99499 27.8951 6.55499 27.4751 6.22499C27.0651 5.88499 26.4101 5.71499 25.5101 5.71499H24.6701V4.66499L27.7901 0.824994L28.0001 1.42499H22.2551V0.119994H29.1851V1.13999L26.0801 4.965L25.3001 4.49999H25.7951C27.0651 4.49999 28.0151 4.78499 28.6451 5.35499C29.2851 5.925 29.6051 6.65 29.6051 7.52999C29.6051 8.12 29.4601 8.66 29.1701 9.15C28.8801 9.64 28.4401 10.03 27.8501 10.32C27.2701 10.6 26.5301 10.74 25.6301 10.74Z" fill="#4C5F66"/>
</svg>
