<svg width="25" height="25" viewBox="0 0 25 25" fill="none" xmlns="http://www.w3.org/2000/svg">
<path d="M19.0257 20.768L21.5302 18.2463C21.8362 17.9385 22.0081 17.5265 22.0081 17.0908C22.0081 16.6551 21.8386 16.2431 21.5302 15.9353L18.835 13.2194C18.529 12.9116 18.1171 12.7388 17.6839 12.7388C17.2485 12.7388 16.8412 12.9092 16.5329 13.2194L14.4214 15.341C13.3019 14.8577 12.2848 14.1632 11.4249 13.2952C10.5563 12.4262 9.87132 11.4104 9.38641 10.2834L11.4979 8.1618C11.8039 7.85399 11.9757 7.44199 11.9757 7.00631C11.9765 6.79142 11.9346 6.57852 11.8526 6.38011C11.7705 6.1817 11.6499 6.00175 11.4979 5.85082L8.80264 3.13258C8.49664 2.82477 8.0847 2.65192 7.65158 2.65192C7.21611 2.65192 6.80888 2.8224 6.50052 3.13258L3.99596 5.65193C3.4734 6.17758 3.17445 6.90213 3.17445 7.64562C3.17445 7.79953 3.18622 7.9487 3.21211 8.10024C3.72527 11.2352 5.38477 14.3465 7.87991 16.8587C10.3798 19.3686 13.4728 21.0356 16.5917 21.5565C17.4768 21.7056 18.3878 21.4073 19.0257 20.768ZM16.8718 19.8777C14.0966 19.416 11.3284 17.9148 9.0804 15.6535C6.83242 13.3923 5.34005 10.6101 4.88103 7.81847C4.82219 7.46803 4.93988 7.10813 5.19175 6.8524L7.65158 4.37805L10.2621 7.00158L7.43738 9.83821L7.41619 9.85952L7.6045 10.371C8.17131 11.9217 9.06656 13.3299 10.2282 14.498C11.3899 15.6661 12.7901 16.5662 14.332 17.1358L14.8404 17.3252L17.6816 14.4649L20.2921 17.0884L17.8322 19.5628C17.578 19.8185 17.2202 19.9369 16.8718 19.8777Z" fill="#4C5F66"/>
</svg>
