<svg width="360" height="240" viewBox="0 0 360 240" fill="none" xmlns="http://www.w3.org/2000/svg">
<path d="M269.206 48.153C269.206 48.153 240.473 15.1463 212.787 9.63257C185.102 4.11881 144.666 13.8705 129.446 33.6345C114.227 53.3985 79.1582 44.783 48.8885 61.3242C18.6192 77.8655 2.56365 109.787 9.94653 138.39C17.3294 166.992 36.3384 172.978 45.936 185.728C55.5336 198.479 97.2465 234.318 149.295 229.494C201.344 224.669 209.465 208.128 236.782 212.608C264.098 217.088 306.18 231.217 330.543 201.58C354.907 171.944 333.989 172.024 343.587 143.422C353.184 114.819 351.456 91.2681 339.275 71.9702C327.093 52.6718 278.435 57.4574 269.206 48.153Z" fill="#AFDB50"/>
<path opacity="0.7" d="M269.206 48.153C269.206 48.153 240.473 15.1463 212.787 9.63257C185.102 4.11881 144.666 13.8705 129.446 33.6345C114.227 53.3985 79.1582 44.783 48.8885 61.3242C18.6192 77.8655 2.56365 109.787 9.94653 138.39C17.3294 166.992 36.3384 172.978 45.936 185.728C55.5336 198.479 97.2465 234.318 149.295 229.494C201.344 224.669 209.465 208.128 236.782 212.608C264.098 217.088 306.18 231.217 330.543 201.58C354.907 171.944 333.989 172.024 343.587 143.422C353.184 114.819 351.456 91.2681 339.275 71.9702C327.093 52.6718 278.435 57.4574 269.206 48.153Z" fill="white"/>
<path d="M342.972 210.239H347.763" stroke="#263238" stroke-miterlimit="10" stroke-linecap="round" stroke-linejoin="round"/>
<path d="M14.8167 210.239H338.836" stroke="#263238" stroke-miterlimit="10" stroke-linecap="round" stroke-linejoin="round"/>
<path d="M297.987 83.163C297.987 83.163 297.361 78.7787 292.141 77.3171C286.922 75.8555 284.625 83.163 283.372 83.7894C282.119 84.4158 280.24 80.2398 276.9 80.6574C273.56 81.075 273.351 85.4598 272.724 86.0857C272.098 86.7121 270.219 84.4153 268.34 85.6681C266.46 86.9209 266.043 88.3825 266.043 88.3825L261.658 90.0529H309.471C309.471 90.0529 309.053 85.4598 305.922 83.7894C302.79 82.119 301.12 83.9982 300.076 84.207C299.031 84.4158 297.987 83.163 297.987 83.163Z" stroke="#263238" stroke-miterlimit="10" stroke-linecap="round" stroke-linejoin="round"/>
<path d="M186.6 132.204C186.6 132.204 185.973 127.82 180.754 126.358C175.534 124.896 173.238 132.204 171.985 132.83C170.732 133.457 168.853 129.281 165.512 129.698C162.172 130.116 161.963 134.5 161.337 135.127C160.711 135.753 158.831 133.456 156.953 134.709C155.073 135.962 154.656 137.424 154.656 137.424L150.271 139.094H198.084C198.084 139.094 197.666 134.501 194.534 132.83C191.402 131.16 189.732 133.039 188.688 133.248C187.644 133.457 186.6 132.204 186.6 132.204Z" stroke="#263238" stroke-miterlimit="10" stroke-linecap="round" stroke-linejoin="round"/>
<path d="M100.426 75.4777C100.426 75.4777 99.3753 68.1217 90.6182 65.6698C81.861 63.218 78.0081 75.4777 75.9062 76.5284C73.8042 77.5791 70.6521 70.5735 65.0471 71.2743C59.4426 71.9747 59.0922 79.3307 58.0415 80.3814C56.9908 81.4321 53.8382 77.5791 50.6855 79.6806C47.5329 81.782 46.8326 84.2343 46.8326 84.2343L39.4766 87.0366H119.691C119.691 87.0366 118.99 79.3307 113.736 76.5284C108.482 73.7262 105.68 76.8788 103.928 77.2292C102.178 77.5791 100.426 75.4777 100.426 75.4777Z" stroke="#263238" stroke-miterlimit="10" stroke-linecap="round" stroke-linejoin="round"/>
<path d="M201.187 155.818L198.718 181.626C198.718 181.626 197.326 185.543 197.326 185.804C197.326 186.065 195.759 202.081 195.759 202.081C195.759 202.081 194.366 202.864 194.54 203.387C194.714 203.909 195.411 206.781 195.411 206.781C195.411 206.781 193.931 211.133 193.931 211.481C193.931 211.829 196.89 212.004 197.761 211.917C198.631 211.83 199.936 212.178 200.372 210.959C200.807 209.74 201.155 207.042 201.155 207.042L203.941 203.3L203.07 199.209L207.248 177.187L210.991 168.048L213.428 168.135L214.298 188.502C214.298 188.502 212.296 200.514 212.992 201.733C213.689 202.951 214.298 206.258 214.298 206.258V208.87C214.298 208.87 214.124 210.088 214.733 210.611C215.343 211.133 220.739 211.046 221.261 211.133C221.784 211.22 224.656 211.655 225.352 211.481C226.049 211.307 227.616 210.523 227.267 209.827C226.919 209.131 223.959 207.825 223.176 207.129C222.393 206.433 221.348 204.344 221.348 204.344C221.348 204.344 221.871 200.34 221.957 199.73C222.044 199.121 221.871 196.858 221.871 195.814C221.871 194.769 224.221 182.235 224.221 180.842C224.221 179.45 223.873 162.042 223.873 162.042L201.187 155.818Z" fill="#263238" stroke="#263238" stroke-miterlimit="10" stroke-linecap="round" stroke-linejoin="round"/>
<path d="M195.411 206.781C195.411 206.781 193.931 211.133 193.931 211.481C193.931 211.829 196.89 212.004 197.761 211.917C198.631 211.83 199.936 212.178 200.372 210.959C200.807 209.74 201.155 207.042 201.155 207.042C201.155 207.042 197.895 205.773 197.018 205.773C196.142 205.773 195.411 206.781 195.411 206.781Z" fill="white" stroke="#263238" stroke-miterlimit="10" stroke-linecap="round" stroke-linejoin="round"/>
<path d="M225.352 211.481C226.049 211.307 227.616 210.524 227.267 209.828C226.919 209.131 223.959 207.826 223.176 207.13C222.92 206.902 222.637 206.525 222.37 206.122L221.883 206.321C221.883 206.321 216.844 207.307 215.421 207.416C214.838 207.461 214.501 207.487 214.298 207.503V208.871C214.298 208.871 214.124 210.089 214.733 210.611C215.342 211.134 220.739 211.047 221.261 211.134C221.784 211.221 224.656 211.655 225.352 211.481Z" fill="white" stroke="#263238" stroke-miterlimit="10" stroke-linecap="round" stroke-linejoin="round"/>
<path d="M229.136 117.045C229.136 117.045 227.58 117.861 226.986 118.306C226.393 118.751 221.945 119.047 219.128 119.047C216.311 119.047 212.381 122.383 211.64 124.163C210.899 125.942 201.187 155.819 201.187 155.819L223.428 162.862L229.804 142.845L230.693 141.214L230.767 146.107C230.767 146.107 234.919 146.848 235.586 146.7C236.253 146.552 237.365 146.552 237.365 146.552L238.255 136.914C238.255 136.914 238.033 133.727 237.143 130.464C236.253 127.202 234.696 124.385 234.696 124.385L232.694 120.53L233.288 116.676C233.288 116.675 230.767 115.785 229.136 117.045Z" fill="white" stroke="#263238" stroke-miterlimit="10" stroke-linecap="round" stroke-linejoin="round"/>
<path d="M232.694 120.53L233.288 116.675C233.288 116.675 230.767 115.785 229.136 117.045C229.136 117.045 227.58 117.861 226.986 118.306C226.704 118.517 225.547 118.694 224.111 118.823C224.257 119.487 225.466 124.567 228.098 125.052C230.405 125.477 233.107 123.717 234.011 123.064L232.694 120.53Z" stroke="#263238" stroke-miterlimit="10" stroke-linecap="round" stroke-linejoin="round"/>
<path d="M241.814 116.156C241.814 116.156 242.926 115.933 243 115.118C243.074 114.302 243.148 111.93 239.738 109.484C236.327 107.037 234.103 106.815 231.138 108.89C228.172 110.966 228.246 115.415 228.395 116.082C228.543 116.749 228.617 117.194 229.136 117.046C229.655 116.897 230.767 116.008 230.767 116.008C230.767 116.008 232.917 117.936 236.549 118.084C240.183 118.231 241.814 116.156 241.814 116.156Z" fill="#263238" stroke="#263238" stroke-miterlimit="10" stroke-linecap="round" stroke-linejoin="round"/>
<path d="M241.814 116.156C241.814 116.156 240.702 120.233 240.183 120.456C239.664 120.678 239.293 120.529 238.997 120.752C238.7 120.974 238.329 123.347 238.107 123.495C237.885 123.644 236.624 123.866 236.624 123.866C236.624 123.866 234.623 124.83 234.548 125.126C234.474 125.423 234.548 126.016 234.103 126.09C232.474 126.361 230.442 124.3 229.729 122.977C229.21 122.013 230.323 118.602 230.323 118.602C230.323 118.602 229.285 116.304 229.729 114.896C230.174 113.487 231.434 112.968 231.953 113.561C232.472 114.155 232.695 115.933 232.695 115.933L233.288 116.675L234.697 116.304C234.697 116.304 236.773 117.045 238.329 116.749C239.886 116.452 241.814 116.156 241.814 116.156Z" fill="white" stroke="#263238" stroke-miterlimit="10" stroke-linecap="round" stroke-linejoin="round"/>
<path d="M230.323 118.602L229.619 121.725C229.569 122.247 229.585 122.707 229.73 122.976C230.443 124.299 232.475 126.36 234.103 126.089C234.549 126.015 234.475 125.422 234.549 125.126C234.623 124.829 236.625 123.865 236.625 123.865C236.625 123.865 236.815 123.831 237.06 123.782L236.922 123.346C236.922 123.346 236.254 122.382 235.142 122.308C234.03 122.234 232.103 121.419 232.103 121.419L233.289 116.674L232.696 115.933L231.51 117.712L230.323 118.602Z" fill="#263238" stroke="#263238" stroke-miterlimit="10" stroke-linecap="round" stroke-linejoin="round"/>
<path d="M238.403 120.084C238.403 120.084 237.884 119.417 236.847 119.417" stroke="#263238" stroke-miterlimit="10" stroke-linecap="round" stroke-linejoin="round"/>
<path d="M237.81 120.678L237.439 121.345C237.439 121.345 236.55 121.345 236.253 120.678" stroke="#263238" stroke-miterlimit="10" stroke-linecap="round" stroke-linejoin="round"/>
<path d="M234.4 123.643C234.4 123.643 233.658 123.347 233.658 122.457" stroke="white" stroke-miterlimit="10" stroke-linecap="round" stroke-linejoin="round"/>
<path d="M230.693 141.214C230.693 141.214 233.584 137.062 234.029 134.912L230.693 141.214Z" fill="white"/>
<path d="M230.693 141.214C230.693 141.214 233.584 137.062 234.029 134.912" stroke="#263238" stroke-miterlimit="10" stroke-linecap="round" stroke-linejoin="round"/>
<path d="M231.446 146.462C231.446 146.462 231.01 151.946 231.01 156.385C231.01 160.824 229.705 165.089 229.705 165.089L229.182 166.308C229.182 166.308 229.966 169.789 229.966 171.269C229.966 172.749 229.53 174.751 229.53 174.751C229.53 174.751 231.794 170.921 231.967 169.528C232.142 168.136 232.49 164.828 232.49 164.828C232.49 164.828 236.581 151.337 236.581 150.467C236.581 149.596 236.581 146.637 236.581 146.637C236.581 146.637 232.316 146.375 231.446 146.462Z" fill="white" stroke="#263238" stroke-miterlimit="10" stroke-linecap="round" stroke-linejoin="round"/>
<path d="M227.441 177.723C227.289 177.723 227.135 177.684 226.994 177.601C226.574 177.354 226.433 176.812 226.68 176.392C227.65 174.74 228.163 172.848 228.163 170.92C228.163 164.955 223.31 160.102 217.345 160.102C211.379 160.102 206.526 164.955 206.526 170.92C206.526 171.624 206.594 172.328 206.728 173.013C206.822 173.491 206.51 173.955 206.031 174.049C205.552 174.147 205.088 173.831 204.994 173.352C204.838 172.557 204.759 171.738 204.759 170.92C204.759 163.98 210.405 158.335 217.345 158.335C224.284 158.335 229.93 163.98 229.93 170.92C229.93 173.163 229.333 175.364 228.203 177.287C228.039 177.567 227.744 177.723 227.441 177.723Z" fill="#AFDB50" stroke="#263238" stroke-miterlimit="10" stroke-linecap="round" stroke-linejoin="round"/>
<path d="M215.381 161.596L202.509 171.715C201.904 172.191 201.797 173.065 202.268 173.673L212.593 186.99C213.058 187.59 213.915 187.71 214.526 187.262L227.92 177.439C228.561 176.969 228.683 176.06 228.187 175.439L217.34 161.824C216.861 161.223 215.986 161.121 215.381 161.596Z" fill="#AFDB50" stroke="#263238" stroke-miterlimit="10" stroke-linecap="round" stroke-linejoin="round"/>
<path d="M218.128 119.567C218.128 119.567 214.821 119.306 212.732 121.22C210.643 123.135 206.9 133.754 206.9 133.754L214.037 136.801L217.258 131.404" fill="white"/>
<path d="M218.128 119.567C218.128 119.567 214.821 119.306 212.732 121.22C210.643 123.135 206.9 133.754 206.9 133.754L214.037 136.801L217.258 131.404" stroke="#263238" stroke-miterlimit="10" stroke-linecap="round" stroke-linejoin="round"/>
<path d="M206.9 133.754L205.159 141.936L216.562 156.124L217.345 158.126C217.345 158.126 219.173 160.302 219.26 160.563C219.347 160.824 220.478 161.433 221.435 161.433C222.393 161.433 223.35 161.172 223.35 161.172C223.35 161.172 223.872 162.478 224.395 161.868C224.917 161.259 224.917 159.693 224.743 158.648C224.568 157.604 225.004 156.472 223.959 155.515C222.915 154.557 221.174 153.774 220.565 153.6C219.956 153.426 211.687 140.457 211.687 140.457L213.34 136.279L206.9 133.754Z" fill="white" stroke="#263238" stroke-miterlimit="10" stroke-linecap="round" stroke-linejoin="round"/>
<path d="M241.243 193.339C241.243 193.339 248.002 197.901 250.706 207.363" stroke="#263238" stroke-width="0.75" stroke-miterlimit="10" stroke-linecap="round" stroke-linejoin="round" stroke-dasharray="2 2"/>
<path d="M244.285 191.142C244.285 191.142 250.368 194.353 253.24 199.253" stroke="#263238" stroke-width="0.75" stroke-miterlimit="10" stroke-linecap="round" stroke-linejoin="round" stroke-dasharray="2 2"/>
<path d="M245.636 187.932C245.636 187.932 250.537 189.96 252.226 192.326" stroke="#263238" stroke-width="0.75" stroke-miterlimit="10" stroke-linecap="round" stroke-linejoin="round" stroke-dasharray="2 2"/>
<path d="M224.569 179.973L227.703 183.716L244.24 186.414C244.24 186.414 244.24 188.242 243.283 189.808C242.325 191.375 239.714 192.855 239.714 192.855L237.277 187.807L216.474 185.805L224.569 179.973Z" fill="#AFDB50" stroke="#263238" stroke-miterlimit="10" stroke-linecap="round" stroke-linejoin="round"/>
<path d="M146.108 170.437L142.011 178.313C142.011 178.313 132.992 180.674 130.568 181.213C128.145 181.751 126.501 181.411 126.501 181.411L122.757 180.904C122.757 180.904 119.053 183.07 118.833 183.187C118.613 183.304 118.656 183.73 119.214 183.716C119.771 183.703 120.756 183.147 120.756 183.147C120.756 183.147 119.007 184.142 119.139 184.421C119.27 184.7 119.696 184.907 120.078 184.687C120.46 184.468 122.046 184.074 122.046 184.074C122.046 184.074 119.826 185.935 120.662 186.039C121.499 186.143 122.309 185.131 122.309 185.131C122.309 185.131 121.455 186.466 122.042 186.32C122.63 186.175 123.791 185.325 123.791 185.325C123.791 185.325 126.596 185.067 127.566 184.951C128.535 184.835 129.329 184.264 129.329 184.264C129.329 184.264 135.701 184.056 138.33 183.592C140.959 183.127 144.279 182.429 144.617 182.033C144.956 181.637 150.275 171.898 150.275 171.898L146.108 170.437Z" fill="white" stroke="#263238" stroke-miterlimit="10" stroke-linecap="round" stroke-linejoin="round"/>
<path d="M124.166 181.553C124.166 181.553 121.124 182.869 120.756 183.147C120.389 183.425 120.167 184.041 120.857 184.057C121.547 184.073 123.912 183.3 123.912 183.3C123.912 183.3 124.997 184.403 126.364 183.628C127.731 182.852 127.731 182.852 127.731 182.852" stroke="#263238" stroke-miterlimit="10" stroke-linecap="round" stroke-linejoin="round"/>
<path d="M147.974 199.32L149.608 205.797C149.608 205.797 147.126 207.492 146.46 207.856C145.795 208.219 143.373 208.824 142.768 209.066C142.163 209.308 141.739 209.914 142.465 210.337C143.191 210.761 147.005 211.064 148.7 211.003C150.395 210.943 152.938 210.64 152.938 210.64C152.938 210.64 155.42 210.64 155.662 210.095C155.904 209.55 155.722 207.673 155.238 207.068C154.753 206.463 153.906 205.01 153.785 204.404C153.664 203.799 153.119 200.167 153.119 200.167L147.974 199.32Z" fill="white" stroke="#263238" stroke-miterlimit="10" stroke-linecap="round" stroke-linejoin="round"/>
<path d="M155.662 210.095C155.904 209.55 155.723 207.674 155.238 207.068C155.139 206.945 155.024 206.78 154.904 206.601C153.494 207.238 150.516 207.371 150.516 207.371C150.516 207.371 150.274 206.645 150.214 206.282C150.153 205.918 149.608 205.797 149.608 205.797C149.608 205.797 147.126 207.492 146.46 207.856C145.795 208.219 143.373 208.824 142.768 209.066C142.163 209.308 141.739 209.914 142.465 210.337C143.191 210.761 147.005 211.063 148.7 211.003C150.395 210.942 152.938 210.64 152.938 210.64C152.938 210.64 155.42 210.64 155.662 210.095Z" fill="white" stroke="#263238" stroke-miterlimit="10" stroke-linecap="round" stroke-linejoin="round"/>
<path d="M162.866 202.71L166.619 204.284C166.619 204.284 166.68 206.039 165.893 207.432C165.106 208.824 164.622 209.853 163.714 210.338C162.805 210.822 161.837 211.548 162.443 212.033C163.048 212.517 168.799 212.457 169.465 212.214C170.131 211.972 172.189 208.824 172.673 207.977C173.158 207.129 173.944 204.526 173.642 204.163C173.339 203.8 171.644 201.923 171.644 201.923L171.099 201.62L164.198 200.652L162.866 202.71Z" fill="white" stroke="#263238" stroke-miterlimit="10" stroke-linecap="round" stroke-linejoin="round"/>
<path d="M173.641 204.163C173.339 203.8 171.644 201.923 171.644 201.923L171.099 201.621L171.059 201.615C171.048 202.093 171.038 202.608 171.038 203.012C171.038 204.042 169.767 205.252 169.767 205.252C169.767 205.252 168.738 204.526 167.528 204.102C166.317 203.678 166.62 204.284 166.62 204.284C166.62 204.284 166.68 206.039 165.893 207.431C165.107 208.824 164.622 209.853 163.714 210.337C162.806 210.822 161.837 211.548 162.443 212.032C163.048 212.517 168.799 212.456 169.465 212.214C170.131 211.972 172.189 208.823 172.674 207.976C173.157 207.129 173.944 204.526 173.641 204.163Z" fill="white" stroke="#263238" stroke-miterlimit="10" stroke-linecap="round" stroke-linejoin="round"/>
<path d="M159.234 186.426L158.87 187.515C158.87 187.515 154.209 184.004 149.548 182.37C144.886 180.735 141.375 180.372 140.043 182.127C138.711 183.883 139.559 187.515 140.891 189.331C142.223 191.147 145.552 199.804 145.552 199.804L147.55 199.925L149.608 201.62C149.608 201.62 155.843 203.073 156.57 203.375C157.296 203.678 161.292 205.675 161.292 205.675C161.292 205.675 163.169 204.041 163.713 203.314C164.258 202.588 165.045 200.892 165.045 200.892L172.128 201.68C172.128 201.68 175.458 199.137 175.881 195.263C176.305 191.388 175.579 188.725 175.155 188.059C174.731 187.393 173.823 185.94 173.823 185.94L173.097 185.032L159.234 186.426Z" fill="#263238" stroke="#263238" stroke-miterlimit="10" stroke-linecap="round" stroke-linejoin="round"/>
<path d="M170.657 194.176C171.21 194.459 171.764 194.78 172.309 195.143" stroke="white" stroke-miterlimit="10" stroke-linecap="round" stroke-linejoin="round"/>
<path d="M146.945 198.896C146.945 198.896 145.25 196.777 146.097 195.143C146.945 193.509 156.994 191.511 162.987 192.056C162.987 192.056 166.21 192.174 169.742 193.739" stroke="white" stroke-miterlimit="10" stroke-linecap="round" stroke-linejoin="round"/>
<path d="M163.955 191.632C163.955 191.632 167.89 191.39 171.885 191.995" stroke="white" stroke-miterlimit="10" stroke-linecap="round" stroke-linejoin="round"/>
<path d="M159.354 188C159.354 188 161.352 189.634 161.897 190.724" stroke="#263238" stroke-miterlimit="10" stroke-linecap="round" stroke-linejoin="round"/>
<path d="M143.01 186.244C143.01 186.244 149.487 190.845 151.061 192.903" stroke="white" stroke-miterlimit="10" stroke-linecap="round" stroke-linejoin="round"/>
<path d="M165.045 200.894C165.045 200.894 160.686 198.896 158.325 198.412C155.964 197.927 155.601 198.23 153.906 197.383" stroke="white" stroke-miterlimit="10" stroke-linecap="round" stroke-linejoin="round"/>
<path d="M151.182 198.473C151.182 198.473 153.422 198.654 154.633 198.109" stroke="white" stroke-miterlimit="10" stroke-linecap="round" stroke-linejoin="round"/>
<path d="M153.059 160.335C153.059 160.335 149.885 162.494 149.219 164.068C148.553 165.642 146.108 170.437 146.108 170.437L150.395 172.745C150.395 172.745 154.572 179.888 155.601 182.188C156.63 184.489 158.628 185.336 158.628 185.336C158.628 185.336 158.991 186.184 159.597 186.305C160.202 186.426 173.096 185.034 173.096 185.034C173.096 185.034 172.854 183.52 172.491 182.491C172.128 181.462 170.372 179.162 170.069 177.83C169.766 176.498 168.798 169.355 167.103 166.267C165.408 163.18 161.533 160.517 160.868 159.851C160.202 159.185 160.504 159.246 159.839 159.003C159.173 158.76 155.48 158.76 153.059 160.335Z" fill="white" stroke="#263238" stroke-miterlimit="10" stroke-linecap="round" stroke-linejoin="round"/>
<path d="M161.125 184.092C163.965 184.348 169.428 184.854 170.335 185.045" stroke="#263238" stroke-miterlimit="10" stroke-linecap="round" stroke-linejoin="round"/>
<path d="M159.413 183.94C159.413 183.94 159.797 183.973 160.421 184.029" stroke="#263238" stroke-miterlimit="10" stroke-linecap="round" stroke-linejoin="round"/>
<path d="M170.229 184.143L171.375 184.395" stroke="#263238" stroke-miterlimit="10" stroke-linecap="round" stroke-linejoin="round"/>
<path d="M163.964 182.77L168.598 183.786" stroke="#263238" stroke-miterlimit="10" stroke-linecap="round" stroke-linejoin="round"/>
<path d="M166.822 176.006C167.497 176.259 168.055 176.458 168.319 176.528" stroke="#263238" stroke-miterlimit="10" stroke-linecap="round" stroke-linejoin="round"/>
<path d="M162.339 174.253C162.339 174.253 164.148 174.981 165.803 175.619" stroke="#263238" stroke-miterlimit="10" stroke-linecap="round" stroke-linejoin="round"/>
<path d="M146.036 149.256C146.036 149.256 145.795 150.043 145.552 151.678C145.31 153.312 146.218 153.857 146.4 154.886C146.581 155.915 145.371 157.368 145.431 157.792C145.492 158.216 146.581 158.216 146.581 158.216C146.581 158.216 148.721 161.971 149.326 162.032C149.932 162.093 151.969 160.335 151.969 160.335L154.269 162.878C154.269 162.878 154.027 164.875 154.572 164.633C155.117 164.391 156.146 163.604 157.296 162.211C158.446 160.819 159.839 159.972 159.839 159.972C159.839 159.972 158.325 158.034 158.023 156.884C157.72 155.734 158.991 156.642 159.233 153.858C159.475 151.073 158.385 148.349 156.449 146.835C154.511 145.322 150.758 144.656 148.095 146.109C145.431 147.561 145.855 148.772 146.036 149.256Z" fill="white" stroke="#263238" stroke-miterlimit="10" stroke-linecap="round" stroke-linejoin="round"/>
<path d="M156.449 146.835C154.511 145.321 150.758 144.655 148.095 146.108C145.431 147.561 145.855 148.772 146.037 149.256C146.037 149.256 147.308 149.982 148.216 150.164C149.124 150.346 150.637 149.62 150.698 151.375C150.758 153.13 152.756 154.886 153.543 153.918C154.33 152.949 155.541 152.888 155.843 153.978C156.146 155.068 155.299 155.855 155.783 156.4C156.267 156.944 157.781 156.46 157.781 156.46C157.781 156.46 157.862 156.466 157.99 156.474C158.099 155.932 159.03 156.202 159.234 153.857C159.476 151.073 158.386 148.348 156.449 146.835Z" fill="#263238" stroke="#263238" stroke-miterlimit="10" stroke-linecap="round" stroke-linejoin="round"/>
<path d="M162.018 148.227C162.018 149.932 160.622 151.315 158.901 151.315C157.179 151.315 155.783 149.932 155.783 148.227C155.783 146.522 157.179 145.14 158.901 145.14C160.622 145.14 162.018 146.522 162.018 148.227Z" fill="#263238" stroke="#263238" stroke-miterlimit="10" stroke-linecap="round" stroke-linejoin="round"/>
<path d="M148.073 155.465C148.197 155.793 148.158 156.112 147.986 156.177C147.814 156.242 147.574 156.028 147.45 155.7C147.326 155.372 147.365 155.052 147.537 154.988C147.709 154.923 147.949 155.136 148.073 155.465Z" fill="#263238"/>
<path d="M147.913 159.366C147.913 159.366 148.7 159.124 148.942 158.277" stroke="#263238" stroke-miterlimit="10" stroke-linecap="round" stroke-linejoin="round"/>
<path d="M146.763 154.341C146.763 154.341 147.489 153.857 148.216 154.584" stroke="#263238" stroke-miterlimit="10" stroke-linecap="round" stroke-linejoin="round"/>
<path d="M155.601 155.734C155.601 155.734 154.815 156.703 154.269 156.703C153.725 156.703 153.725 156.703 153.725 156.703" stroke="#263238" stroke-miterlimit="10" stroke-linecap="round" stroke-linejoin="round"/>
<path d="M160.477 163.353C160.477 163.353 158.12 164.422 157.352 165.107C156.584 165.792 152.153 169.608 152.153 169.608L160.851 175.16L166.916 170.636" fill="white"/>
<path d="M160.477 163.353C160.477 163.353 158.12 164.422 157.352 165.107C156.584 165.792 152.153 169.608 152.153 169.608L160.851 175.16L166.916 170.636" stroke="#263238" stroke-miterlimit="10" stroke-linecap="round" stroke-linejoin="round"/>
<path d="M152.153 169.608L144.717 172.595C144.717 172.595 140.176 173.136 136.035 173.269C131.893 173.402 127.973 173.419 127.577 173.328C127.181 173.237 123.437 171.155 123.1 171.05C122.763 170.945 119.495 172.112 119.495 172.112C119.495 172.112 118.97 173.796 119.041 174.091C119.113 174.385 119.686 174.183 119.686 174.183C119.686 174.183 119.943 175.242 120.118 175.449C120.293 175.656 120.582 176.333 120.892 176.071C121.202 175.809 122.062 174.479 122.062 174.479C122.062 174.479 124.141 175.345 124.933 175.527C125.724 175.709 130.14 176.194 131.168 176.319C132.194 176.444 144.18 177.834 144.491 177.571C144.801 177.309 156.493 172.354 156.493 172.354L152.153 169.608Z" fill="white" stroke="#263238" stroke-miterlimit="10" stroke-linecap="round" stroke-linejoin="round"/>
<path d="M121.947 172.202L120.416 172.823L119.687 174.184" stroke="#263238" stroke-miterlimit="10" stroke-linecap="round" stroke-linejoin="round"/>
<path d="M122.193 172.703L120.776 173.795L120.119 175.449" stroke="#263238" stroke-miterlimit="10" stroke-linecap="round" stroke-linejoin="round"/>
<path d="M122.616 173.161L121.228 174.371L120.893 176.071" stroke="#263238" stroke-miterlimit="10" stroke-linecap="round" stroke-linejoin="round"/>
<path d="M258.589 209.683V172.781" stroke="#263238" stroke-miterlimit="10" stroke-linecap="round" stroke-linejoin="round"/>
<path d="M258.841 197.665L269.152 186.397" stroke="#263238" stroke-miterlimit="10" stroke-linecap="round" stroke-linejoin="round"/>
<path d="M258.522 186.822L251.613 180.231" stroke="#263238" stroke-miterlimit="10" stroke-linecap="round" stroke-linejoin="round"/>
<path d="M264.475 191.605L265.006 184.802" stroke="#263238" stroke-miterlimit="10" stroke-linecap="round" stroke-linejoin="round"/>
<path d="M258.629 204.362L250.762 199.791" stroke="#263238" stroke-miterlimit="10" stroke-linecap="round" stroke-linejoin="round"/>
<path d="M255.44 183.846L249.168 184.058" stroke="#263238" stroke-miterlimit="10" stroke-linecap="round" stroke-linejoin="round"/>
<path d="M260.309 169.593C260.309 171.764 258.516 173.524 258.516 173.524C258.516 173.524 256.722 171.764 256.722 169.593C256.722 167.422 258.516 165.661 258.516 165.661C258.516 165.661 260.309 167.421 260.309 169.593Z" fill="#AFDB50"/>
<path d="M250.949 177.138C252.644 178.495 252.896 180.996 252.896 180.996C252.896 180.996 250.401 181.295 248.706 179.938C247.012 178.58 246.76 176.08 246.76 176.08C246.76 176.08 249.255 175.78 250.949 177.138Z" fill="#AFDB50"/>
<path d="M248.039 182.193C250.21 182.208 251.957 184.014 251.957 184.014C251.957 184.014 250.185 185.795 248.014 185.78C245.843 185.766 244.095 183.96 244.095 183.96C244.095 183.96 245.868 182.178 248.039 182.193Z" fill="#AFDB50"/>
<path d="M266.993 184.621C266.772 186.781 264.807 188.348 264.807 188.348C264.807 188.348 263.202 186.414 263.424 184.254C263.645 182.094 265.61 180.527 265.61 180.527C265.61 180.527 267.215 182.461 266.993 184.621Z" fill="#AFDB50"/>
<path d="M255.147 195.655C256.251 197.525 258.691 198.128 258.691 198.128C258.691 198.128 259.341 195.7 258.237 193.831C257.133 191.961 254.693 191.358 254.693 191.358C254.693 191.358 254.043 193.786 255.147 195.655Z" fill="#AFDB50"/>
<path d="M262.163 184.687C261.059 186.557 258.62 187.16 258.62 187.16C258.62 187.16 257.97 184.732 259.074 182.863C260.178 180.993 262.618 180.39 262.618 180.39C262.618 180.39 263.267 182.817 262.163 184.687Z" fill="#AFDB50"/>
<path d="M250.53 196.994C252.313 198.233 252.734 200.711 252.734 200.711C252.734 200.711 250.265 201.179 248.482 199.94C246.7 198.7 246.279 196.222 246.279 196.222C246.279 196.222 248.748 195.754 250.53 196.994Z" fill="#AFDB50"/>
<path d="M272.276 185.566C270.831 187.187 268.321 187.308 268.321 187.308C268.321 187.308 268.152 184.801 269.597 183.18C271.041 181.559 273.552 181.438 273.552 181.438C273.552 181.438 273.72 183.945 272.276 185.566Z" fill="#AFDB50"/>
<path d="M248.12 210.115C248.12 210.115 255.92 206.995 259.04 206.995C262.16 206.995 269.57 210.309 269.57 210.309L248.12 210.115Z" fill="#263238"/>
<path d="M304.317 209.683V172.781" stroke="#263238" stroke-miterlimit="10" stroke-linecap="round" stroke-linejoin="round"/>
<path d="M304.065 206.169L293.753 194.901" stroke="#263238" stroke-miterlimit="10" stroke-linecap="round" stroke-linejoin="round"/>
<path d="M304.384 186.822L311.293 180.231" stroke="#263238" stroke-miterlimit="10" stroke-linecap="round" stroke-linejoin="round"/>
<path d="M298.431 200.11L297.899 193.306" stroke="#263238" stroke-miterlimit="10" stroke-linecap="round" stroke-linejoin="round"/>
<path d="M304.277 204.362L312.144 199.791" stroke="#263238" stroke-miterlimit="10" stroke-linecap="round" stroke-linejoin="round"/>
<path d="M307.467 183.846L313.738 184.058" stroke="#263238" stroke-miterlimit="10" stroke-linecap="round" stroke-linejoin="round"/>
<path d="M302.597 176.171C302.597 178.342 304.391 180.102 304.391 180.102C304.391 180.102 306.184 178.342 306.184 176.171C306.184 174 304.391 172.24 304.391 172.24C304.391 172.24 302.597 173.999 302.597 176.171Z" fill="#AFDB50"/>
<path d="M311.957 177.138C310.262 178.495 310.01 180.996 310.01 180.996C310.01 180.996 312.506 181.295 314.2 179.938C315.895 178.58 316.147 176.08 316.147 176.08C316.147 176.08 313.651 175.78 311.957 177.138Z" fill="#AFDB50"/>
<path d="M314.868 182.193C312.697 182.208 310.949 184.014 310.949 184.014C310.949 184.014 312.721 185.795 314.893 185.78C317.064 185.766 318.811 183.96 318.811 183.96C318.811 183.96 317.039 182.178 314.868 182.193Z" fill="#AFDB50"/>
<path d="M304.484 189.427L297.574 182.836" stroke="#263238" stroke-miterlimit="10" stroke-linecap="round" stroke-linejoin="round"/>
<path d="M301.401 186.451L295.13 186.663" stroke="#263238" stroke-miterlimit="10" stroke-linecap="round" stroke-linejoin="round"/>
<path d="M296.911 179.743C298.605 181.1 298.857 183.601 298.857 183.601C298.857 183.601 296.362 183.9 294.667 182.543C292.973 181.185 292.721 178.685 292.721 178.685C292.721 178.685 295.216 178.385 296.911 179.743Z" fill="#AFDB50"/>
<path d="M294 184.798C296.171 184.813 297.919 186.619 297.919 186.619C297.919 186.619 296.147 188.4 293.975 188.385C291.804 188.371 290.056 186.565 290.056 186.565C290.056 186.565 291.829 184.783 294 184.798Z" fill="#AFDB50"/>
<path d="M295.913 193.125C296.134 195.285 298.098 196.853 298.098 196.853C298.098 196.853 299.703 194.919 299.482 192.759C299.26 190.599 297.296 189.031 297.296 189.031C297.296 189.031 295.691 190.965 295.913 193.125Z" fill="#AFDB50"/>
<path d="M308.009 190.521C305.938 191.174 303.72 189.993 303.72 189.993C303.72 189.993 304.859 187.753 306.929 187.1C309 186.446 311.218 187.628 311.218 187.628C311.218 187.628 310.079 189.868 308.009 190.521Z" fill="#AFDB50"/>
<path d="M312.376 196.994C310.593 198.233 310.172 200.711 310.172 200.711C310.172 200.711 312.641 201.179 314.424 199.94C316.206 198.7 316.627 196.222 316.627 196.222C316.627 196.222 314.158 195.754 312.376 196.994Z" fill="#AFDB50"/>
<path d="M290.63 194.071C292.075 195.692 294.585 195.813 294.585 195.813C294.585 195.813 294.754 193.305 293.309 191.684C291.865 190.063 289.355 189.942 289.355 189.942C289.355 189.942 289.186 192.45 290.63 194.071Z" fill="#AFDB50"/>
<path d="M293.165 210.115C293.165 210.115 300.965 206.995 304.085 206.995C307.205 206.995 314.615 210.309 314.615 210.309L293.165 210.115Z" fill="#263238"/>
<path d="M119.18 209.683V172.781" stroke="#263238" stroke-miterlimit="10" stroke-linecap="round" stroke-linejoin="round"/>
<path d="M119.433 197.665L129.744 186.397" stroke="#263238" stroke-miterlimit="10" stroke-linecap="round" stroke-linejoin="round"/>
<path d="M119.114 186.822L112.204 180.231" stroke="#263238" stroke-miterlimit="10" stroke-linecap="round" stroke-linejoin="round"/>
<path d="M125.067 191.605L125.598 184.802" stroke="#263238" stroke-miterlimit="10" stroke-linecap="round" stroke-linejoin="round"/>
<path d="M119.22 204.362L111.354 199.791" stroke="#263238" stroke-miterlimit="10" stroke-linecap="round" stroke-linejoin="round"/>
<path d="M116.031 183.846L109.759 184.058" stroke="#263238" stroke-miterlimit="10" stroke-linecap="round" stroke-linejoin="round"/>
<path d="M120.901 169.593C120.901 171.764 119.107 173.524 119.107 173.524C119.107 173.524 117.313 171.764 117.313 169.593C117.313 167.422 119.107 165.661 119.107 165.661C119.107 165.661 120.901 167.421 120.901 169.593Z" fill="#AFDB50"/>
<path d="M111.541 177.138C113.235 178.495 113.487 180.996 113.487 180.996C113.487 180.996 110.991 181.295 109.297 179.938C107.603 178.58 107.351 176.08 107.351 176.08C107.351 176.08 109.846 175.78 111.541 177.138Z" fill="#AFDB50"/>
<path d="M108.63 182.193C110.801 182.208 112.549 184.014 112.549 184.014C112.549 184.014 110.777 185.795 108.605 185.78C106.434 185.766 104.687 183.96 104.687 183.96C104.687 183.96 106.459 182.178 108.63 182.193Z" fill="#AFDB50"/>
<path d="M127.585 184.621C127.364 186.781 125.4 188.348 125.4 188.348C125.4 188.348 123.794 186.414 124.016 184.254C124.238 182.094 126.202 180.527 126.202 180.527C126.202 180.527 127.806 182.461 127.585 184.621Z" fill="#AFDB50"/>
<path d="M115.739 195.655C116.843 197.525 119.282 198.128 119.282 198.128C119.282 198.128 119.932 195.7 118.828 193.831C117.724 191.961 115.285 191.358 115.285 191.358C115.285 191.358 114.635 193.786 115.739 195.655Z" fill="#AFDB50"/>
<path d="M122.755 184.687C121.651 186.557 119.211 187.16 119.211 187.16C119.211 187.16 118.561 184.732 119.665 182.863C120.769 180.993 123.209 180.39 123.209 180.39C123.209 180.39 123.859 182.817 122.755 184.687Z" fill="#AFDB50"/>
<path d="M111.122 196.994C112.905 198.233 113.326 200.711 113.326 200.711C113.326 200.711 110.857 201.179 109.074 199.94C107.291 198.7 106.87 196.222 106.87 196.222C106.87 196.222 109.339 195.754 111.122 196.994Z" fill="#AFDB50"/>
<path d="M132.867 185.566C131.423 187.187 128.913 187.308 128.913 187.308C128.913 187.308 128.744 184.801 130.188 183.18C131.633 181.559 134.143 181.438 134.143 181.438C134.143 181.438 134.312 183.945 132.867 185.566Z" fill="#AFDB50"/>
<path d="M108.499 210.115C108.499 210.115 116.299 206.995 119.419 206.995C122.539 206.995 129.949 210.309 129.949 210.309L108.499 210.115Z" fill="#263238"/>
<path d="M90.8716 186.957C90.8716 186.957 83.9452 196.56 84.154 197.045C84.3624 197.529 87.3158 199.587 90.4704 200.87C93.6254 202.152 98.3832 201.558 101.538 200.085C101.538 200.085 101.687 195.556 96.8923 190.45C93.9235 187.289 90.8716 186.957 90.8716 186.957Z" fill="#ADADAD" stroke="#263238" stroke-miterlimit="10" stroke-linecap="round" stroke-linejoin="round"/>
<path d="M99.1272 196.075C99.1272 196.075 97.4228 195.681 96.7671 196.337C96.1114 196.992 95.4557 198.435 95.8493 198.959C96.2429 199.484 96.7671 200.27 96.7671 200.27C96.7671 200.27 95.4557 200.139 95.4557 201.188C95.4557 202.237 94.669 204.073 96.2424 205.253C97.8159 206.433 99.1272 204.728 99.5204 204.466C99.914 204.204 100.045 202.499 100.045 202.499C100.045 202.499 101.618 202.368 102.143 201.319C102.668 200.27 102.93 198.959 102.012 197.517C101.094 196.075 99.1272 196.075 99.1272 196.075Z" fill="#263238"/>
<path d="M100.963 204.073C100.963 204.073 98.4718 206.564 99.1275 207.089C99.7832 207.613 101.357 208.531 101.357 208.531C101.357 208.531 102.93 208.531 103.192 207.351C103.454 206.172 103.717 205.253 103.061 204.729C102.405 204.204 102.405 203.68 100.963 204.073Z" fill="#263238"/>
<path d="M101.356 208.531C101.356 208.531 98.9962 209.056 98.0784 209.449C97.1607 209.842 95.7183 210.105 95.7183 210.105H111.846C111.846 210.105 111.321 208.269 109.879 208.007C108.436 207.745 105.027 208.4 105.027 208.4C105.027 208.4 104.634 207.613 103.192 207.351C101.75 207.089 101.356 208.531 101.356 208.531Z" fill="#263238"/>
<path d="M97.2917 207.679C97.2917 208.005 97.0277 208.269 96.7017 208.269C96.3758 208.269 96.1118 208.005 96.1118 207.679C96.1118 207.353 96.3758 207.089 96.7017 207.089C97.0277 207.089 97.2917 207.353 97.2917 207.679Z" fill="#263238"/>
<path d="M95.1936 204.467C95.1936 205.046 94.7241 205.515 94.1447 205.515C93.5654 205.515 93.0959 205.046 93.0959 204.467C93.0959 203.887 93.5654 203.418 94.1447 203.418C94.7241 203.418 95.1936 203.887 95.1936 204.467Z" fill="#263238"/>
<path d="M75.6546 205.248C75.6546 205.248 78.1635 207.636 78.86 208.077C79.5565 208.517 81.0426 209.163 80.8986 210.277C80.7546 211.392 77.1839 212.149 76.4259 211.385C75.668 210.62 69.62 208.43 69.4122 207.857C69.2043 207.284 69.6632 206.269 69.6632 206.269L75.081 205.456L75.6546 205.248Z" fill="white" stroke="#263238" stroke-miterlimit="10" stroke-linecap="round" stroke-linejoin="round"/>
<path d="M70.3718 160.212C70.3718 160.212 74.591 178.972 74.6913 182.826C74.7917 186.68 73.9584 199.86 73.9584 199.86C73.9584 199.86 75.8395 203.415 75.9014 203.739C75.9629 204.063 75.6729 204.928 75.6547 205.248C75.6547 205.248 69.2189 207.045 68.5752 207.088C67.9315 207.131 66.8928 207.072 66.8928 207.072C66.8928 207.072 66.2947 200.705 65.6942 198.586C65.0938 196.468 62.7465 184.228 62.7465 184.228L57.7373 170.875C57.7373 170.875 55.5067 163.612 55.1184 161.986C54.7301 160.361 55.1184 156.375 55.1184 156.375C55.1184 156.375 64.7645 157.327 66.575 157.911C68.3856 158.496 70.3718 160.212 70.3718 160.212Z" fill="#263238" stroke="#263238" stroke-miterlimit="10" stroke-linecap="round" stroke-linejoin="round"/>
<path d="M69.6643 206.268C69.6643 206.268 70.9017 207.06 72.0868 207.369C73.2719 207.677 76.8926 208.846 77.0159 209.494C77.1393 210.143 76.7692 211.004 76.427 211.385C76.0847 211.766 73.0204 212.072 70.9387 212.033C68.8564 211.994 65.3246 210.67 64.7745 210.478C64.2244 210.286 63.3638 209.917 63.3638 209.917C63.3638 209.917 68.5502 206.125 69.6643 206.268Z" fill="white" stroke="#263238" stroke-miterlimit="10" stroke-linecap="round" stroke-linejoin="round"/>
<path d="M67.714 164.63L65.2531 165.612L65.1753 166.97L67.8945 179.712C67.8945 179.712 68.0519 183.97 68.374 185.351C68.6961 186.732 69.2006 201.752 69.2006 201.752C69.2006 201.752 70.463 203.508 70.6094 203.757C70.7553 204.006 70.7783 206.412 70.7783 206.412C70.7783 206.412 66.0115 208.465 64.678 209.351C63.3446 210.236 62.8079 209.805 62.8079 209.805C62.8079 209.805 61.0775 209.225 60.8467 209.051C60.6163 208.878 60.6091 207.595 60.6091 207.595C60.6091 207.595 57.6388 193.636 57.2207 191.127C56.8027 188.618 55.6569 180.616 55.6569 180.616C55.6569 180.616 51.5793 164.99 51.2481 163.769C50.9169 162.548 50.9582 156.217 50.9582 156.217C50.9582 156.217 59.3025 157.495 61.0607 157.596C62.8185 157.696 68.0947 159.361 68.0947 159.361L68.6313 159.792" fill="#263238"/>
<path d="M67.714 164.63L65.2531 165.612L65.1753 166.97L67.8945 179.712C67.8945 179.712 68.0519 183.97 68.374 185.351C68.6961 186.732 69.2006 201.752 69.2006 201.752C69.2006 201.752 70.463 203.508 70.6094 203.757C70.7553 204.006 70.7783 206.412 70.7783 206.412C70.7783 206.412 66.0115 208.465 64.678 209.351C63.3446 210.236 62.8079 209.805 62.8079 209.805C62.8079 209.805 61.0775 209.225 60.8467 209.051C60.6163 208.878 60.6091 207.595 60.6091 207.595C60.6091 207.595 57.6388 193.636 57.2207 191.127C56.8027 188.618 55.6569 180.616 55.6569 180.616C55.6569 180.616 51.5793 164.99 51.2481 163.769C50.9169 162.548 50.9582 156.217 50.9582 156.217C50.9582 156.217 59.3025 157.495 61.0607 157.596C62.8185 157.696 68.0947 159.361 68.0947 159.361L68.6313 159.792" stroke="#263238" stroke-miterlimit="10" stroke-linecap="round" stroke-linejoin="round"/>
<path d="M67.0421 166.35L64.1462 167.542C64.1462 167.542 68.3429 184.082 68.3741 185.351C68.4053 186.62 68.5752 203.484 68.5752 203.484" stroke="white" stroke-miterlimit="10" stroke-linecap="round" stroke-linejoin="round"/>
<path d="M82.9959 133.823C82.9959 133.823 76.8504 131.908 75.7791 131.847C74.7077 131.786 69.9399 131.415 67.3071 133.024C64.6743 134.633 56.9703 142.891 54.6269 146.275C52.2836 149.66 50.4216 156.59 50.4216 156.59C50.4216 156.59 55.9992 158.179 57.4604 158.262C58.9215 158.346 62.5148 158.747 62.5148 158.747C62.5148 158.747 66.0994 161.004 68.8268 161.16C71.5541 161.316 68.9602 162.242 73.9282 159.106C78.8962 155.969 82.0968 154.686 82.0968 154.686L78.565 160.055C78.565 160.055 79.8452 161.594 81.4791 162.078C83.113 162.562 86.1744 163.714 86.1744 163.714C86.1744 163.714 88.0421 156.686 88.8351 154.778C89.628 152.868 90.6999 149.509 90.6106 147.647C90.5213 145.785 89.414 141.226 89.414 141.226C89.414 141.226 84.9106 134.519 82.9959 133.823Z" fill="white" stroke="#263238" stroke-miterlimit="10" stroke-linecap="round" stroke-linejoin="round"/>
<path d="M62.0347 154.266C62.4743 155.255 62.9659 156.146 63.4771 156.692" stroke="#263238" stroke-miterlimit="10" stroke-linecap="round" stroke-linejoin="round"/>
<path d="M60.2043 148.891C60.2043 148.891 60.6699 150.708 61.3832 152.648" stroke="#263238" stroke-miterlimit="10" stroke-linecap="round" stroke-linejoin="round"/>
<path d="M57.6455 151.844C57.6455 151.844 59.781 156.304 61.9693 158.288" stroke="#263238" stroke-miterlimit="10" stroke-linecap="round" stroke-linejoin="round"/>
<path d="M79.6104 150.035L84.5827 150.078L85.1193 146.908L86.555 148.235L86.783 144.247L86.616 140.948L83.1777 145.108L79.6104 150.035Z" stroke="#263238" stroke-miterlimit="10" stroke-linecap="round" stroke-linejoin="round"/>
<path d="M84.7919 134.365C84.7919 134.365 88.7318 131.054 91.0175 130.434C93.3033 129.815 96.3518 130.846 97.2585 131.862C98.1647 132.878 98.9764 137.425 99.01 138.713C99.0436 140.001 98.8574 141.383 97.9785 141.762C97.0996 142.14 95.8574 143.248 95.4244 143.33C94.991 143.413 94.2436 143.37 94.2436 143.37L93.4684 145.683L91.4572 145.247C91.4572 145.247 87.6028 147.063 87.0748 146.926C86.5468 146.788 84.8774 144.121 84.8774 144.121C84.8774 144.121 84.035 147.609 82.918 148.403C81.8011 149.196 79.6099 150.035 79.6099 150.035C79.6099 150.035 81.7977 147.374 82.6065 142.598C83.4158 137.822 84.7919 134.365 84.7919 134.365Z" fill="white" stroke="#263238" stroke-miterlimit="10" stroke-linecap="round" stroke-linejoin="round"/>
<path d="M97.2581 131.862C96.3519 130.846 93.3034 129.815 91.0177 130.434C88.7319 131.054 84.7921 134.365 84.7921 134.365C84.7921 134.365 84.2487 136.37 84.9903 136.52C85.7319 136.669 85.7319 136.669 85.7319 136.669C85.7319 136.669 87.5506 134.844 88.1429 135.735C88.7348 136.626 89.3329 137.411 88.982 137.927C88.6311 138.442 88.0359 139.48 88.0359 139.48L88.7655 139.843L90.2151 138.854L91.3474 139.669L93.5324 138.937C93.5324 138.937 95.702 140.347 96.8405 141.055C97.3964 141.4 97.8845 141.56 98.3079 141.541C98.9026 140.991 99.0389 139.82 99.0101 138.714C98.9765 137.425 98.1644 132.878 97.2581 131.862Z" fill="#263238" stroke="#263238" stroke-miterlimit="10" stroke-linecap="round" stroke-linejoin="round"/>
<path d="M94.1476 142.746C94.1476 142.746 93.6705 141.981 92.8987 141.806" stroke="#263238" stroke-miterlimit="10" stroke-linecap="round" stroke-linejoin="round"/>
<path d="M93.2697 142.913L92.6414 143.267C92.6414 143.267 92.2593 143.115 92.075 142.54" stroke="#263238" stroke-miterlimit="10" stroke-linecap="round" stroke-linejoin="round"/>
<path d="M89.5171 144.001C89.5171 144.001 89.4034 144.472 89.8042 145.059" stroke="#263238" stroke-miterlimit="10" stroke-linecap="round" stroke-linejoin="round"/>
<path d="M84.8774 144.121L84.8635 141.707" stroke="#263238" stroke-miterlimit="10" stroke-linecap="round" stroke-linejoin="round"/>
<path d="M85.7318 136.669C85.7318 136.669 85.0977 137.604 85.1424 138.265C85.187 138.926 85.9838 139.384 85.9838 139.384" fill="white"/>
<path d="M85.7318 136.669C85.7318 136.669 85.0977 137.604 85.1424 138.265C85.187 138.926 85.9838 139.384 85.9838 139.384" stroke="#263238" stroke-miterlimit="10" stroke-linecap="round" stroke-linejoin="round"/>
<path d="M84.9777 133.831L83.3294 133.115L78.3672 142.166L82.056 144.511L84.9777 133.831Z" fill="white" stroke="#263238" stroke-miterlimit="10" stroke-linecap="round" stroke-linejoin="round"/>
<path d="M82.056 144.511L78.4834 146.352L79.61 150.036C79.61 150.036 81.95 146.371 82.056 144.511Z" stroke="#263238" stroke-miterlimit="10" stroke-linecap="round" stroke-linejoin="round"/>
<path d="M58.0502 141.095C58.0502 141.095 51.298 146.378 50.8641 147.135C50.4302 147.892 45.1142 162.248 45.1142 162.248C45.1142 162.248 44.2238 164.151 44.3793 164.844C44.5353 165.538 45.7934 167.466 46.1716 167.683C46.5499 167.9 48.2227 167.703 48.852 166.957C49.4808 166.211 50.1379 164.978 50.1014 163.901C50.0654 162.824 49.439 161.811 49.439 161.811L49.403 160.734L57.7996 148.9L61.8187 146.979L58.0502 141.095Z" fill="white" stroke="#263238" stroke-miterlimit="10" stroke-linecap="round" stroke-linejoin="round"/>
<path d="M72.5029 132.735C72.5029 132.735 68.5203 132.312 66.0013 133.634C63.4827 134.956 57.3733 140.959 57.3733 140.959C57.3733 140.959 57.8936 143.823 58.893 145.15C59.8923 146.478 62.3135 148.571 62.3135 148.571C62.3135 148.571 70.6381 144.844 72.8451 142.136" fill="white"/>
<path d="M72.5029 132.735C72.5029 132.735 68.5203 132.312 66.0013 133.634C63.4827 134.956 57.3733 140.959 57.3733 140.959C57.3733 140.959 57.8936 143.823 58.893 145.15C59.8923 146.478 62.3135 148.571 62.3135 148.571C62.3135 148.571 70.6381 144.844 72.8451 142.136" stroke="#263238" stroke-miterlimit="10" stroke-linecap="round" stroke-linejoin="round"/>
<path d="M55.0551 170.3C55.0315 170.299 55.0075 170.296 54.9835 170.291C54.8482 170.264 54.5919 170.247 54.2674 170.227C53.4523 170.174 52.0891 170.088 49.9095 169.688C46.693 169.098 45.8549 168.102 45.7699 167.99C45.637 167.816 45.6317 167.576 45.757 167.396L50.1077 161.137C50.2167 160.981 50.4043 160.899 50.5935 160.925C51.7171 161.084 53.8733 162.981 54.7133 164.551C55.4986 166.018 56.3127 167.991 56.3467 168.075C56.4039 168.213 56.3967 168.369 56.328 168.501L55.5322 170.03C55.4391 170.207 55.2509 170.311 55.0551 170.3ZM46.8495 167.594C47.2627 167.868 48.205 168.347 50.0914 168.693C52.2125 169.081 53.5392 169.166 54.3317 169.217C54.5127 169.229 54.6653 169.238 54.7973 169.25L55.3215 168.243C55.0867 167.688 54.4344 166.173 53.8215 165.027C53.1403 163.754 51.5544 162.377 50.7293 162.013L46.8495 167.594Z" fill="#263238"/>
<path d="M55.0833 169.795L88.6717 193.76C88.6717 193.76 94.7279 196.626 94.1452 195.805C93.5625 194.984 90.1832 192.114 89.804 191.856C89.4248 191.599 55.8791 168.266 55.8791 168.266L55.0833 169.795Z" fill="white" stroke="#263238" stroke-miterlimit="10" stroke-linecap="round" stroke-linejoin="round"/>
<path d="M84.2261 190.588L88.6718 193.76C88.6718 193.76 94.728 196.626 94.1453 195.805C93.5626 194.984 90.1834 192.114 89.8042 191.856C89.7211 191.8 88.0358 190.629 85.4582 188.837L84.2261 190.588Z" fill="#ADADAD" stroke="#263238" stroke-miterlimit="10" stroke-linecap="round" stroke-linejoin="round"/>
<path d="M77.9136 186.374C77.9136 186.374 78.0864 187.486 79.1491 188.177C80.2118 188.868 81.0417 188.128 81.0417 188.128L77.9136 186.374Z" fill="white" stroke="#263238" stroke-miterlimit="10" stroke-linecap="round" stroke-linejoin="round"/>
<path d="M80.1172 178.447L84.7424 163.187C83.7244 162.818 82.3837 162.346 81.4789 162.078C80.4805 161.782 79.616 161.093 79.0933 160.601C78.5284 162.557 77.1104 167.545 77.0543 168.534C76.9837 169.769 77.1503 179.252 77.1503 179.252C77.1503 179.252 76.4317 180.981 76.5829 181.433C76.7341 181.884 77.3168 182.537 77.3168 182.537C77.3168 182.537 77.2511 183.685 77.0394 184.292C76.8277 184.9 76.9386 186.057 77.4882 185.735C78.0378 185.412 79.1428 184.324 79.1428 184.324L82.1202 186.442C82.1202 186.442 81.2874 182.764 81.0882 181.602C80.889 180.439 80.1172 178.447 80.1172 178.447Z" fill="white" stroke="#263238" stroke-miterlimit="10" stroke-linecap="round" stroke-linejoin="round"/>
<path d="M47.311 164.747C47.311 164.747 47.7531 167.328 48.2029 167.485C48.6526 167.642 49.8637 168.235 49.7163 167.375C49.569 166.515 49.569 166.515 49.569 166.515C49.569 166.515 50.4397 164.684 50.1013 163.901C49.7629 163.118 49.0054 162.616 49.0054 162.616" fill="white"/>
<path d="M47.311 164.747C47.311 164.747 47.7531 167.328 48.2029 167.485C48.6526 167.642 49.8637 168.235 49.7163 167.375C49.569 166.515 49.569 166.515 49.569 166.515C49.569 166.515 50.4397 164.684 50.1013 163.901C49.7629 163.118 49.0054 162.616 49.0054 162.616" stroke="#263238" stroke-miterlimit="10" stroke-linecap="round" stroke-linejoin="round"/>
</svg>
