<svg width="18" height="23" viewBox="0 0 18 23" fill="none" xmlns="http://www.w3.org/2000/svg">
<path d="M8.908 0C5.83808 0 3.3405 2.51233 3.3405 5.60037V7.84052H2.227C0.998809 7.84052 0 8.84522 0 10.0807V20.1613C0 21.3968 0.998809 22.4015 2.227 22.4015H15.589C16.8172 22.4015 17.816 21.3968 17.816 20.1613V10.0807C17.816 8.84522 16.8172 7.84052 15.589 7.84052H14.4755V5.60037C14.4755 2.51233 11.9779 0 8.908 0ZM5.5675 5.60037C5.5675 3.74777 7.06627 2.24015 8.908 2.24015C10.7497 2.24015 12.2485 3.74777 12.2485 5.60037V7.84052H5.5675V5.60037ZM15.5912 20.1613H10.0215V17.6098C10.684 17.2211 11.135 16.5065 11.135 15.681C11.135 14.4456 10.1362 13.4409 8.908 13.4409C7.67981 13.4409 6.681 14.4456 6.681 15.681C6.681 16.5054 7.13197 17.2211 7.7945 17.6098V20.1613H2.227V10.0807H15.589L15.5912 20.1613Z" fill="#4C5F66"/>
</svg>
