<svg width="10" height="6" viewBox="0 0 10 6" fill="none" xmlns="http://www.w3.org/2000/svg">
<path d="M0.210953 0.212198C0.346066 0.0763278 0.529295 0 0.720346 0C0.911397 0 1.09463 0.0763278 1.22974 0.212198L4.79621 3.79973L8.36269 0.212198C8.49858 0.0801784 8.68058 0.00712703 8.86949 0.00877832C9.0584 0.0104296 9.23911 0.0866514 9.3727 0.221027C9.50629 0.355402 9.58206 0.537179 9.5837 0.727207C9.58534 0.917235 9.51272 1.10031 9.38148 1.237L5.30561 5.33693C5.17049 5.4728 4.98727 5.54913 4.79621 5.54913C4.60516 5.54913 4.42193 5.4728 4.28682 5.33693L0.210953 1.237C0.0758798 1.10109 0 0.916778 0 0.724599C0 0.53242 0.0758798 0.34811 0.210953 0.212198Z" fill="#4C5F66"/>
</svg>
